<svg width="20" height="17" viewBox="0 0 20 17" fill="none" xmlns="http://www.w3.org/2000/svg">
<g clip-path="url(#clip0_383_350)">
<path d="M9.63333 0C4.31995 0 0 3.81172 0 8.5C0 13.1883 4.31995 17 9.63333 17C14.9467 17 19.2667 13.1883 19.2667 8.5C19.2667 3.81172 14.9467 0 9.63333 0ZM9.63333 14.1678C9.1893 14.1678 8.83181 13.849 8.83181 13.4605C8.83181 13.0721 9.1893 12.75 9.63333 12.75C10.0774 12.75 10.4349 13.0687 10.4349 13.4572C10.4349 13.8457 10.0774 14.1678 9.63333 14.1678ZM10.4349 11.6875C10.4349 11.8834 10.2542 12.0428 10.0322 12.0428H9.23069C9.00867 12.0428 8.82805 11.8834 8.82805 11.6875V3.1875C8.82805 2.9916 9.00867 2.83223 9.23069 2.83223H10.0322C10.2542 2.83223 10.4349 2.9916 10.4349 3.1875V11.6875Z" fill="#FF3E24"/>
</g>
<defs>
<clipPath id="clip0_383_350">
<rect width="19.2667" height="17" fill="white"/>
</clipPath>
</defs>
</svg>
