<svg width="28" height="28" viewBox="0 0 28 28" fill="none" xmlns="http://www.w3.org/2000/svg">
<path fill-rule="evenodd" clip-rule="evenodd" d="M18.5063 15.2179C18.611 14.8296 18.6668 14.4213 18.6668 13.9999C18.6668 11.4226 16.5775 9.33325 14.0002 9.33325C13.5788 9.33325 13.1704 9.3891 12.7821 9.4938L14.7198 11.4315C15.6141 11.6815 16.3185 12.386 16.5686 13.2803L18.5063 15.2179ZM11.6984 12.6527C11.4665 13.048 11.3335 13.5084 11.3335 13.9999C11.3335 15.4727 12.5274 16.6666 14.0002 16.6666C14.4916 16.6666 14.9521 16.5336 15.3474 16.3017L16.7882 17.7425C16.0103 18.323 15.0454 18.6666 14.0002 18.6666C11.4228 18.6666 9.3335 16.5772 9.3335 13.9999C9.3335 12.9547 9.67712 11.9897 10.2576 11.2119L11.6984 12.6527Z" fill="#A2A2A2"/>
<path fill-rule="evenodd" clip-rule="evenodd" d="M19.3713 20.3261L17.9102 18.865C16.6801 19.5536 15.3563 20 13.9998 20C12.117 20 10.297 19.1398 8.70326 17.966C7.11872 16.799 5.84809 15.3882 5.08503 14.4433C4.98575 14.3203 4.9111 14.2278 4.84916 14.1463C4.79834 14.0796 4.76614 14.0332 4.74518 14C4.76614 13.9668 4.79834 13.9204 4.84916 13.8536C4.9111 13.7722 4.98575 13.6797 5.08503 13.5567C5.84809 12.6118 7.11872 11.201 8.70326 10.034C8.77553 9.98074 8.84827 9.92816 8.92145 9.87627L7.48935 8.44417C5.72814 9.74678 4.34548 11.2892 3.52905 12.3002C3.50526 12.3296 3.48046 12.3599 3.45492 12.3911L3.4549 12.3911C3.14463 12.7701 2.72705 13.2801 2.72705 14C2.72705 14.7199 3.14463 15.2299 3.4549 15.6089C3.48044 15.6401 3.50526 15.6704 3.52905 15.6998C4.34978 16.7161 5.74273 18.2695 7.51723 19.5764C9.28254 20.8766 11.5171 22 13.9998 22C15.9872 22 17.8154 21.2802 19.3713 20.3261ZM10.1546 6.86677C11.3361 6.34191 12.6302 6 13.9998 6C16.4826 6 18.7171 7.12344 20.4825 8.42359C22.257 9.7305 23.6499 11.2839 24.4706 12.3002C24.4944 12.3296 24.5192 12.3599 24.5448 12.3911C24.8551 12.7701 25.2726 13.2801 25.2726 14C25.2726 14.7199 24.8551 15.2299 24.5448 15.6089C24.5192 15.6401 24.4944 15.6704 24.4706 15.6998C23.8654 16.4493 22.949 17.4908 21.7979 18.5101L20.3809 17.093C21.4619 16.1484 22.3348 15.1613 22.9147 14.4433C23.0139 14.3203 23.0886 14.2278 23.1505 14.1464C23.2013 14.0796 23.2335 14.0332 23.2545 14C23.2335 13.9668 23.2013 13.9204 23.1505 13.8536C23.0886 13.7722 23.0139 13.6797 22.9147 13.5567C22.1516 12.6118 20.881 11.201 19.2964 10.034C17.7027 8.86019 15.8827 8 13.9998 8C13.2167 8 12.4445 8.1488 11.6949 8.40707L10.1546 6.86677Z" fill="#A2A2A2"/>
<path d="M5.8335 2.33325L24.5002 20.9999" stroke="#A2A2A2" stroke-width="2"/>
</svg>
