<svg width="55" height="55" viewBox="0 0 55 55" fill="none" xmlns="http://www.w3.org/2000/svg">
<rect width="55" height="55" rx="9" fill="#F9F9F9"/>
<path d="M38.4331 16.5764C32.3289 10.4745 22.4322 10.4746 16.328 16.5765C15.5898 15.8386 14.3268 16.2208 14.1221 17.2441L13.2586 21.5599C13.0757 22.4742 13.8821 23.2803 14.7966 23.0974L19.1141 22.2342C20.1378 22.0296 20.5202 20.767 19.782 20.0291C23.9718 15.8408 30.7893 15.8408 34.9792 20.029C39.186 24.2343 39.186 31.0155 34.9792 35.2209C30.7892 39.4092 23.9718 39.4092 19.782 35.2208C17.687 33.1267 16.6395 30.3758 16.6395 27.625H16.6345C16.6345 26.2691 15.5288 25.1714 14.1696 25.1837C12.8217 25.1959 11.746 26.3243 11.75 27.6718C11.7619 31.6549 13.2879 35.6344 16.3281 38.6736C22.4322 44.7755 32.329 44.7755 38.4331 38.6736C44.5223 32.5866 44.5223 22.6634 38.4331 16.5764Z" fill="#00BCA1"/>
<path d="M32.0127 28.6872L29.0454 26.8381V21.2465C29.0454 20.2007 28.2601 19.353 27.2913 19.353C26.3224 19.353 25.5371 20.2007 25.5371 21.2465V27.9312C25.5371 28.632 25.89 29.2434 26.4143 29.5708L26.4142 29.571L30.2585 31.9667C31.0975 32.4895 32.1703 32.1793 32.6548 31.2736C33.1391 30.3681 32.8517 29.2101 32.0127 28.6872Z" fill="#00BCA1"/>
</svg>
