<svg width="48" height="48" viewBox="0 0 48 48" fill="none" xmlns="http://www.w3.org/2000/svg">
<path fill-rule="evenodd" clip-rule="evenodd" d="M2 24C2 11.8497 11.8497 2 24 2C36.1503 2 46 11.8497 46 24C46 36.1503 36.1503 46 24 46C11.8497 46 2 36.1503 2 24Z" fill="#00BCA1"/>
<path fill-rule="evenodd" clip-rule="evenodd" d="M24 22C25.1046 22 26 22.8954 26 24V32C26 33.1046 25.1046 34 24 34C22.8954 34 22 33.1046 22 32V24C22 22.8954 22.8954 22 24 22Z" fill="#F5F5F5"/>
<path fill-rule="evenodd" clip-rule="evenodd" d="M22 16C22 14.8954 22.8954 14 24 14H24.02C25.1246 14 26.02 14.8954 26.02 16C26.02 17.1046 25.1246 18 24.02 18H24C22.8954 18 22 17.1046 22 16Z" fill="#F5F5F5"/>
</svg>
