<svg width="55" height="55" viewBox="0 0 55 55" fill="none" xmlns="http://www.w3.org/2000/svg">
<rect width="55" height="55" rx="9" fill="#F9F9F9"/>
<path d="M29.1113 28.9322C28.7125 28.9322 28.3299 28.7813 28.0479 28.5127C27.7659 28.2441 27.6074 27.8798 27.6074 27.4999C27.6074 27.1201 27.7659 26.7557 28.0479 26.4871C28.3299 26.2185 28.7125 26.0676 29.1113 26.0676H35.127V17.4739C35.1258 16.3346 34.65 15.2424 33.8042 14.4368C32.9583 13.6312 31.8115 13.1781 30.6152 13.177H18.584C17.3878 13.1781 16.2409 13.6312 15.395 14.4368C14.5492 15.2424 14.0735 16.3346 14.0723 17.4739V37.526C14.0735 38.6652 14.5492 39.7575 15.395 40.5631C16.2409 41.3686 17.3878 41.8217 18.584 41.8228H30.6152C31.8115 41.8217 32.9583 41.3686 33.8042 40.5631C34.65 39.7575 35.1258 38.6652 35.127 37.526V28.9322H29.1113Z" fill="#00BCA1" fill-opacity="0.3"/>
<path d="M42.2058 26.4874L37.6941 22.1905C37.5544 22.0575 37.3885 21.952 37.206 21.8801C37.0235 21.8082 36.8279 21.7712 36.6303 21.7712C36.4328 21.7713 36.2372 21.8084 36.0547 21.8805C35.8723 21.9525 35.7065 22.0581 35.5668 22.1912C35.4272 22.3243 35.3165 22.4822 35.2409 22.6561C35.1654 22.8299 35.1266 23.0162 35.1266 23.2043C35.1267 23.3925 35.1657 23.5787 35.2414 23.7525C35.317 23.9263 35.4279 24.0842 35.5676 24.2172L37.5121 26.0677H29.1113C28.7125 26.0677 28.3299 26.2186 28.0479 26.4872C27.7659 26.7558 27.6074 27.1201 27.6074 27.5C27.6074 27.8798 27.7659 28.2442 28.0479 28.5128C28.3299 28.7814 28.7125 28.9323 29.1113 28.9323H37.5121L35.5676 30.7842C35.424 30.9164 35.3094 31.0744 35.2306 31.2491C35.1518 31.4239 35.1103 31.6118 35.1085 31.802C35.1068 31.9922 35.1448 32.1808 35.2205 32.3568C35.2961 32.5328 35.4078 32.6928 35.549 32.8272C35.6902 32.9617 35.8581 33.0681 36.0429 33.1401C36.2277 33.2121 36.4258 33.2483 36.6254 33.2467C36.8251 33.245 37.0225 33.2055 37.206 33.1305C37.3894 33.0554 37.5554 32.9463 37.6941 32.8095L42.2058 28.5126C42.3457 28.3796 42.4566 28.2216 42.5323 28.0477C42.608 27.8739 42.6469 27.6875 42.6469 27.4993C42.6469 27.311 42.608 27.1247 42.5323 26.9508C42.4566 26.7769 42.3457 26.6189 42.2058 26.4859V26.4874Z" fill="#00BCA1"/>
</svg>
