<svg width="21" height="20" viewBox="0 0 21 20" fill="none" xmlns="http://www.w3.org/2000/svg">
<path d="M10.9375 10.8333C10.7054 10.8333 10.4829 10.7455 10.3188 10.5893C10.1547 10.433 10.0625 10.221 10.0625 10C10.0625 9.77898 10.1547 9.56702 10.3188 9.41074C10.4829 9.25446 10.7054 9.16666 10.9375 9.16666H14.4375V4.16666C14.4368 3.50383 14.16 2.86833 13.6679 2.39963C13.1758 1.93093 12.5085 1.66733 11.8125 1.66666H4.8125C4.11652 1.66733 3.44924 1.93093 2.95711 2.39963C2.46498 2.86833 2.18819 3.50383 2.1875 4.16666V15.8333C2.18819 16.4962 2.46498 17.1317 2.95711 17.6004C3.44924 18.0691 4.11652 18.3327 4.8125 18.3333H11.8125C12.5085 18.3327 13.1758 18.0691 13.6679 17.6004C14.16 17.1317 14.4368 16.4962 14.4375 15.8333V10.8333H10.9375Z" fill="#00BCA1" fill-opacity="0.3"/>
<path d="M18.5561 9.41085L15.9311 6.91085C15.8498 6.83348 15.7533 6.77212 15.6471 6.73026C15.5409 6.68841 15.4271 6.66689 15.3122 6.66693C15.1973 6.66697 15.0835 6.68857 14.9773 6.73049C14.8711 6.77241 14.7747 6.83384 14.6934 6.91127C14.6122 6.98869 14.5478 7.0806 14.5038 7.18174C14.4599 7.28288 14.4373 7.39127 14.4373 7.50073C14.4374 7.61018 14.46 7.71856 14.5041 7.81967C14.5481 7.92078 14.6126 8.01265 14.6939 8.09002L15.8253 9.16668H10.9375C10.7054 9.16668 10.4829 9.25448 10.3188 9.41076C10.1547 9.56704 10.0625 9.779 10.0625 10C10.0625 10.221 10.1547 10.433 10.3188 10.5893C10.4829 10.7456 10.7054 10.8333 10.9375 10.8333H15.8253L14.6939 11.9109C14.6103 11.9877 14.5436 12.0797 14.4978 12.1813C14.4519 12.283 14.4278 12.3924 14.4268 12.503C14.4258 12.6137 14.4479 12.7234 14.4919 12.8258C14.5359 12.9282 14.6009 13.0213 14.683 13.0995C14.7652 13.1778 14.8629 13.2396 14.9704 13.2815C15.078 13.3234 15.1932 13.3445 15.3094 13.3436C15.4255 13.3426 15.5403 13.3196 15.6471 13.2759C15.7539 13.2323 15.8504 13.1688 15.9311 13.0892L18.5561 10.5892C18.6375 10.5118 18.702 10.4199 18.7461 10.3187C18.7901 10.2176 18.8127 10.1091 18.8127 9.9996C18.8127 9.89009 18.7901 9.78165 18.7461 9.68048C18.702 9.57932 18.6375 9.48741 18.5561 9.41002V9.41085Z" fill="#00BCA1"/>
</svg>
