<svg width="12" height="13" viewBox="0 0 12 13" fill="none" xmlns="http://www.w3.org/2000/svg">
<path fill-rule="evenodd" clip-rule="evenodd" d="M5.5 1.22222C3.13745 1.22222 1.22222 3.13745 1.22222 5.5C1.22222 7.86255 3.13745 9.77778 5.5 9.77778C7.86255 9.77778 9.77778 7.86255 9.77778 5.5C9.77778 3.13745 7.86255 1.22222 5.5 1.22222ZM0 5.5C0 2.46243 2.46243 0 5.5 0C8.53757 0 11 2.46243 11 5.5C11 8.53757 8.53757 11 5.5 11C2.46243 11 0 8.53757 0 5.5Z" fill="#575B65"/>
<path fill-rule="evenodd" clip-rule="evenodd" d="M8.18596 9.18596C8.43392 8.93801 8.83593 8.93801 9.08388 9.18596L11.814 11.9161C12.062 12.1641 12.062 12.5661 11.814 12.814C11.5661 13.062 11.1641 13.062 10.9161 12.814L8.18596 10.0839C7.93801 9.83593 7.93801 9.43392 8.18596 9.18596Z" fill="#575B65"/>
</svg>
