<svg width="55" height="55" viewBox="0 0 55 55" fill="none" xmlns="http://www.w3.org/2000/svg">
<rect width="55" height="55" rx="9" fill="#F9F9F9"/>
<path fill-rule="evenodd" clip-rule="evenodd" d="M27.1228 10.3125H27.879C28.7907 10.3125 29.6651 10.6747 30.3097 11.3193C30.9544 11.964 31.3165 12.8383 31.3165 13.75V14.0594C31.3172 14.6622 31.4763 15.2542 31.778 15.7761C32.0796 16.298 32.5132 16.7314 33.0353 17.0328L33.7744 17.4625C34.2969 17.7642 34.8897 17.923 35.4931 17.923C36.0965 17.923 36.6893 17.7642 37.2119 17.4625L37.4697 17.325C38.2585 16.87 39.1956 16.7465 40.0753 16.9818C40.955 17.217 41.7054 17.7917 42.1619 18.5797L42.54 19.2328C42.995 20.0216 43.1184 20.9587 42.8832 21.8384C42.648 22.7182 42.0733 23.4686 41.2853 23.925L41.0275 24.0797C40.5029 24.3825 40.0677 24.8186 39.7658 25.3438C39.464 25.869 39.3063 26.4646 39.3087 27.0703V27.9297C39.3063 28.5354 39.464 29.131 39.7658 29.6562C40.0677 30.1814 40.5029 30.6175 41.0275 30.9203L41.2853 31.0578C42.0733 31.5142 42.648 32.2647 42.8832 33.1444C43.1184 34.0241 42.995 34.9612 42.54 35.75L42.1619 36.4203C41.7054 37.2083 40.955 37.783 40.0753 38.0182C39.1956 38.2535 38.2585 38.13 37.4697 37.675L37.2119 37.5375C36.6893 37.2358 36.0965 37.077 35.4931 37.077C34.8897 37.077 34.2969 37.2358 33.7744 37.5375L33.0353 37.9672C32.5132 38.2686 32.0796 38.702 31.778 39.2239C31.4763 39.7458 31.3172 40.3378 31.3165 40.9406V41.25C31.3165 42.1617 30.9544 43.036 30.3097 43.6807C29.6651 44.3253 28.7907 44.6875 27.879 44.6875H27.1228C26.2111 44.6875 25.3368 44.3253 24.6921 43.6807C24.0475 43.036 23.6853 42.1617 23.6853 41.25V40.9406C23.6847 40.3378 23.5255 39.7458 23.2239 39.2239C22.9222 38.702 22.4886 38.2686 21.9665 37.9672L21.2275 37.5375C20.7049 37.2358 20.1121 37.077 19.5087 37.077C18.9053 37.077 18.3125 37.2358 17.79 37.5375L17.5322 37.675C16.7434 38.13 15.8063 38.2535 14.9265 38.0182C14.0468 37.783 13.2964 37.2083 12.84 36.4203L12.4619 35.7672C12.0068 34.9784 11.8834 34.0413 12.1186 33.1616C12.3539 32.2818 12.9286 31.5314 13.7165 31.075L13.9744 30.9203C14.4989 30.6175 14.9342 30.1814 15.236 29.6562C15.5378 29.131 15.6955 28.5354 15.6931 27.9297V27.0531C15.6895 26.4532 15.5289 25.8647 15.2274 25.3461C14.9259 24.8275 14.4939 24.3968 13.9744 24.0969L13.7165 23.925C12.9286 23.4686 12.3539 22.7182 12.1186 21.8384C11.8834 20.9587 12.0068 20.0216 12.4619 19.2328L12.84 18.5797C13.2964 17.7917 14.0468 17.217 14.9265 16.9818C15.8063 16.7465 16.7434 16.87 17.5322 17.325L17.79 17.4625C18.3125 17.7642 18.9053 17.923 19.5087 17.923C20.1121 17.923 20.7049 17.7642 21.2275 17.4625L21.9665 17.0328C22.4886 16.7314 22.9222 16.298 23.2239 15.7761C23.5255 15.2542 23.6847 14.6622 23.6853 14.0594V13.75C23.6853 12.8383 24.0475 11.964 24.6921 11.3193C25.3368 10.6747 26.2111 10.3125 27.1228 10.3125ZM32.6572 27.5C32.6572 30.3477 30.3486 32.6562 27.5009 32.6562C24.6532 32.6562 22.3447 30.3477 22.3447 27.5C22.3447 24.6523 24.6532 22.3438 27.5009 22.3438C30.3486 22.3438 32.6572 24.6523 32.6572 27.5Z" fill="#00BCA1"/>
</svg>
