<svg width="23" height="28" viewBox="0 0 23 28" fill="none" xmlns="http://www.w3.org/2000/svg">
<path d="M23 21.5536V25.4211C22.9985 26.1045 22.7429 26.7596 22.2891 27.2429C21.8353 27.7262 21.2202 27.9984 20.5784 28H2.42156C1.77978 27.9984 1.16473 27.7262 0.71093 27.2429C0.257128 26.7596 0.00151421 26.1045 0 25.4211V21.5536C0.00453877 19.8455 0.643714 18.2086 1.77788 17.0007C2.91204 15.7929 4.44899 15.1121 6.05293 15.1073H16.9471C18.551 15.1121 20.088 15.7929 21.2221 17.0007C22.3563 18.2086 22.9955 19.8455 23 21.5536ZM5.31519 6.58477C5.31557 5.28211 5.67862 4.00882 6.35845 2.92589C7.03827 1.84297 8.00434 0.999036 9.1345 0.500809C10.2647 0.00258186 11.5082 -0.127568 12.7078 0.126815C13.9074 0.381198 15.0092 1.00869 15.874 1.92995C16.7388 2.85121 17.3276 4.02487 17.5661 5.30253C17.8046 6.58019 17.682 7.90447 17.2138 9.10793C16.7457 10.3114 15.9529 11.34 14.9359 12.0637C13.9189 12.7873 12.7232 13.1736 11.5 13.1736C9.85969 13.1736 8.28656 12.4796 7.12668 11.2444C5.9668 10.0091 5.31519 8.33169 5.31519 6.58477Z" fill="#00BCA1"/>
</svg>
