<svg width="38" height="39" viewBox="0 0 38 39" fill="none" xmlns="http://www.w3.org/2000/svg">
<path d="M24.2168 19.8231C24.2168 22.8201 21.8768 25.1912 19.0611 25.1912C16.2453 25.1912 13.9053 22.8201 13.9053 19.8231C13.9053 16.8262 16.2453 14.4551 19.0611 14.4551C21.8768 14.4551 24.2168 16.8262 24.2168 19.8231Z" stroke="#A1A1A1" stroke-width="2"/>
<path d="M32.1609 18.7705C32.5215 19.2492 32.7019 19.4886 32.7019 19.8231C32.7019 20.1576 32.5215 20.397 32.1609 20.8757C30.2902 23.359 25.1317 29.3752 19.061 29.3752C12.9902 29.3752 7.83171 23.359 5.96104 20.8757C5.6004 20.397 5.42008 20.1576 5.42008 19.8231C5.42008 19.4886 5.6004 19.2492 5.96104 18.7705C7.8317 16.2872 12.9902 10.271 19.061 10.271C25.1317 10.271 30.2902 16.2872 32.1609 18.7705Z" stroke="#A1A1A1" stroke-width="2"/>
</svg>
