<svg width="23" height="26" viewBox="0 0 23 26" fill="none" xmlns="http://www.w3.org/2000/svg">
<path d="M14.3332 13.0003C14.3332 14.96 12.9529 16.3337 11.4998 16.3337C10.0467 16.3337 8.6665 14.96 8.6665 13.0003C8.6665 11.0406 10.0467 9.66699 11.4998 9.66699C12.9529 9.66699 14.3332 11.0406 14.3332 13.0003Z" stroke="#A1A1A1" stroke-width="2"/>
<path d="M19.4673 12.0125C19.7848 12.4573 19.9435 12.6797 19.9435 13C19.9435 13.3203 19.7848 13.5427 19.4673 13.9875C18.1695 15.8059 15.091 19.5 11.5 19.5C7.90898 19.5 4.83054 15.8059 3.53268 13.9875C3.2152 13.5427 3.05646 13.3203 3.05646 13C3.05646 12.6797 3.2152 12.4573 3.53268 12.0125C4.83054 10.1941 7.90898 6.5 11.5 6.5C15.091 6.5 18.1695 10.1941 19.4673 12.0125Z" stroke="#A1A1A1" stroke-width="2"/>
</svg>
