<svg width="318" height="35" viewBox="0 0 318 35" fill="none" xmlns="http://www.w3.org/2000/svg">
<path d="M45.8256 0H71.8428V4.54843L51.9102 29.0136H72.3211V34.1844H44.291V29.3002L64.2236 5.16923H45.8256V0Z" fill="#00BCA1"/>
<path d="M83.5864 0H89.576V19.9167C89.576 21.0665 89.6315 22.2321 89.7439 23.412C89.8548 24.5935 90.1747 25.6545 90.702 26.5953C91.2294 27.5376 92.0276 28.312 93.0982 28.917C94.1672 29.5235 95.6781 29.826 97.626 29.826C99.574 29.826 101.083 29.5235 102.154 28.917C103.224 28.3104 104.023 27.536 104.55 26.5953C105.077 25.6545 105.396 24.5935 105.508 23.412C105.619 22.2321 105.676 21.0665 105.676 19.9167V0H111.666V21.8805C111.666 24.0835 111.33 25.9982 110.66 27.6263C109.988 29.2543 109.038 30.6195 107.809 31.7201C106.579 32.8208 105.103 33.6428 103.378 34.186C101.653 34.7292 99.7371 35 97.6292 35C95.5213 35 93.605 34.7292 91.8803 34.186C90.1557 33.6443 88.6781 32.8208 87.4491 31.7201C86.2186 30.6195 85.2683 29.2543 84.5984 27.6263C83.9269 25.9982 83.5928 24.0835 83.5928 21.8805V0H83.5864Z" fill="#00BCA1"/>
<path d="M125.504 0H131.494V29.0152H148.886V34.186H125.504V0Z" fill="#00BCA1"/>
<path d="M169.109 0H175.482L188.658 34.186H182.238L179.028 25.1367H165.373L162.163 34.186H155.981L169.109 0ZM166.999 20.5882H177.444L172.317 5.88983H172.173L166.999 20.5882Z" fill="#00BCA1"/>
<path d="M230.01 0V34.186H229.051V1.19729H228.955L214.437 34.186H213.382L198.864 1.19729H198.768V34.186H197.81V0H199.39L213.86 32.9412H213.957L228.427 0H230.01Z" fill="#00BCA1"/>
<path d="M265.03 33.2278V34.186H242.128V0H264.838V0.958153H243.084V15.8957H263.543V16.8539H243.084V33.2278H265.03Z" fill="#00BCA1"/>
<path d="M286.778 0C288.47 0 290.187 0.262894 291.928 0.79027C293.668 1.31765 295.235 2.22671 296.623 3.51902C298.012 4.81133 299.146 6.55974 300.025 8.7611C300.903 10.964 301.343 13.7403 301.343 17.0914C301.343 20.1559 300.895 22.7738 300.001 24.9434C299.107 27.1147 297.909 28.8774 296.408 30.2346C294.907 31.5919 293.198 32.5896 291.282 33.2278C289.365 33.8661 287.368 34.186 285.292 34.186H274.798V0H286.778ZM285.533 33.2278C287.546 33.2278 289.454 32.9016 291.258 32.2459C293.062 31.5919 294.644 30.602 296.001 29.2781C297.358 27.9541 298.429 26.2785 299.211 24.2514C299.994 22.2242 300.385 19.8392 300.385 17.093C300.385 13.9018 299.986 11.2681 299.187 9.19345C298.389 7.11879 297.335 5.46697 296.025 4.23801C294.715 3.00905 293.237 2.15544 291.592 1.67716C289.947 1.19888 288.261 0.959738 286.537 0.959738H275.756V33.2294H285.533V33.2278Z" fill="#00BCA1"/>
<path d="M307.008 0.223389H308.47V0.521127H307.008V0.223389Z" fill="#00BCA1"/>
<path d="M317.652 8.76591C317.652 9.2917 317.57 9.82541 317.406 10.367C317.242 10.9087 316.96 11.3949 316.556 11.8272C316.154 12.2596 315.609 12.6112 314.923 12.8851C314.237 13.1575 313.373 13.2953 312.329 13.2953C311.376 13.2953 310.56 13.156 309.884 12.8788C309.208 12.6001 308.658 12.2279 308.237 11.7607C307.814 11.2935 307.504 10.763 307.306 10.1659C307.106 9.57043 307.008 8.94961 307.008 8.30346V5.04102H317.652V8.76591ZM307.306 8.37789C307.306 9.00345 307.407 9.59736 307.611 10.158C307.816 10.7186 308.123 11.2112 308.536 11.6324C308.948 12.0553 309.47 12.3879 310.101 12.6302C310.731 12.8741 311.475 12.9944 312.329 12.9944C313.324 12.9944 314.142 12.8693 314.789 12.6222C315.435 12.3736 315.949 12.0458 316.331 11.6388C316.714 11.2317 316.979 10.7725 317.129 10.2609C317.278 9.74938 317.353 9.22519 317.353 8.68989V5.33717H307.304V8.37789H307.306Z" fill="#00BCA1"/>
<path d="M307.306 23.589H307.008V16.4686H317.652V23.5304H317.354V16.7664H312.703V23.1281H312.405V16.7664H307.307V23.589H307.306Z" fill="#00BCA1"/>
<path d="M36.8419 6.08615C34.8607 2.39294 31.5365 0.0775662 28.1648 0.0427246C28.1379 0.0427246 28.1109 0.0427246 28.084 0.0427246C27.0578 0.0427246 25.8446 0.24543 24.5492 0.864661C24.1659 1.04837 23.9204 1.43797 23.922 1.86241V8.20674C23.922 9.13163 24.6727 9.8823 25.5976 9.8823H31.9419C31.9419 9.8823 33.4813 9.88232 33.4813 11.4217V17.5823C33.4813 18.4328 32.7924 19.1217 31.9419 19.1217H25.5976C24.6727 19.1217 23.922 19.8724 23.922 20.7972V27.1416C23.922 27.9921 23.2331 28.681 22.3827 28.681H16.222C15.3716 28.681 14.6827 27.9921 14.6827 27.1416V20.7972C14.6827 19.8724 13.932 19.1217 13.0071 19.1217H6.66274C5.81229 19.1217 5.12338 18.4328 5.12338 17.5823V11.4217C5.12338 10.5712 5.81229 9.8823 6.66274 9.8823H13.0071C13.932 9.8823 14.6827 9.13163 14.6827 8.20674V1.86241C14.6842 1.43639 14.4388 1.04837 14.0555 0.864661C12.7584 0.24543 11.5469 0.0427246 10.5207 0.0427246C10.4937 0.0427246 10.4668 0.0427246 10.4399 0.0427246C7.06818 0.0775662 3.74396 2.39294 1.76274 6.08615C-0.216894 9.77778 -1.12278 15.5884 2.27745 20.8242C5.39102 25.6196 10.8327 29.8751 18.9159 33.8296L19.3039 34.0196L19.6919 33.8296C27.7752 29.8751 33.2168 25.6212 36.3304 20.8242C39.7274 15.5868 38.8216 9.7762 36.8419 6.08615Z" fill="#00BCA1"/>
</svg>
