<svg width="187" height="167" viewBox="0 0 187 167" fill="none" xmlns="http://www.w3.org/2000/svg">
<path d="M178.459 29.7041C168.862 11.5515 152.76 0.17125 136.428 0C136.297 0 136.167 0 136.037 0C131.066 0 125.189 0.996319 118.914 4.0399C117.058 4.94286 115.869 6.85778 115.876 8.94392V40.127C115.876 44.6729 119.513 48.3625 123.993 48.3625H154.724C154.724 48.3625 162.181 48.3626 162.181 55.9287V86.2089C162.181 90.389 158.844 93.775 154.724 93.775H123.993C119.513 93.775 115.876 97.4646 115.876 102.011V133.194C115.876 137.374 112.539 140.76 108.42 140.76H78.5781C74.4586 140.76 71.1216 137.374 71.1216 133.194V102.011C71.1216 97.4646 67.4853 93.775 63.0053 93.775H32.2738C28.1543 93.775 24.8172 90.389 24.8172 86.2089V55.9287C24.8172 51.7487 28.1543 48.3625 32.2738 48.3625H63.0053C67.4853 48.3625 71.1216 44.6729 71.1216 40.127V8.94392C71.1292 6.85 69.9402 4.94286 68.0837 4.0399C61.8009 0.996319 55.9323 0 50.9612 0C50.8308 0 50.7004 0 50.57 0C34.2377 0.17125 18.1355 11.5515 8.53859 29.7041C-1.05062 47.8488 -5.43864 76.4087 11.0318 102.143C26.1137 125.713 52.4725 146.629 91.6271 166.066L93.5066 167L95.3861 166.066C134.541 146.629 160.9 125.721 175.981 102.143C192.437 76.4009 188.048 47.841 178.459 29.7041Z" fill="#00BCA1"/>
</svg>
